<?xml version="1.0" encoding="iso-8859-1"?>
<!-- Uploaded to: SVG Repo, www.svgrepo.com, Generator: SVG Repo Mixer Tools -->
<!DOCTYPE svg PUBLIC "-//W3C//DTD SVG 1.1//EN" "http://www.w3.org/Graphics/SVG/1.1/DTD/svg11.dtd">
<svg fill="#000000" height="800px" width="800px" version="1.1" id="Capa_1" xmlns="http://www.w3.org/2000/svg" xmlns:xlink="http://www.w3.org/1999/xlink" 
	 viewBox="0 0 212.161 212.161" xml:space="preserve">
<g>
	<path d="M33.819,212.161h115.617c4.143,0,7.5-3.357,7.5-7.5v-20.216h21.406c4.143,0,7.5-3.357,7.5-7.5V85.822
		c0-4.143-3.357-7.5-7.5-7.5h-21.406V58.105c0-23.153-18.837-41.99-41.99-41.99c-1.194,0-2.398,0.054-3.605,0.162
		C104.415,6.116,93.021,0,80.456,0C62.589,0,47.313,12.799,43.771,29.907c-10.608,5.249-17.452,16.05-17.452,28.198v118.84v27.716
		C26.319,208.804,29.676,212.161,33.819,212.161z M141.936,85.822v83.623H41.319V65.605h100.617V85.822z M141.936,197.161H41.319
		v-12.716h100.617V197.161z M170.842,93.322v76.123h-13.906V93.322H170.842z M52.838,42.381c2.926-0.922,4.994-3.533,5.224-6.592
		C58.935,24.132,68.771,15,80.456,15c8.678,0,16.428,4.878,20.225,12.729c1.518,3.135,4.994,4.816,8.392,4.053
		c1.977-0.442,3.953-0.667,5.874-0.667c12.281,0,22.673,8.245,25.931,19.49h-97.77C45.061,46.759,48.501,43.749,52.838,42.381z"/>
	<path d="M91.626,156.661c3.452,0,6.25-2.798,6.25-6.25V84.639c0-3.452-2.798-6.25-6.25-6.25c-3.452,0-6.25,2.798-6.25,6.25v65.772
		C85.376,153.863,88.173,156.661,91.626,156.661z"/>
	<path d="M120.53,156.661c3.452,0,6.25-2.798,6.25-6.25V84.639c0-3.452-2.798-6.25-6.25-6.25c-3.452,0-6.25,2.798-6.25,6.25v65.772
		C114.28,153.863,117.078,156.661,120.53,156.661z"/>
	<path d="M62.724,156.661c3.452,0,6.25-2.798,6.25-6.25V84.639c0-3.452-2.798-6.25-6.25-6.25c-3.452,0-6.25,2.798-6.25,6.25v65.772
		C56.474,153.863,59.272,156.661,62.724,156.661z"/>
</g>
</svg>