<?xml version="1.0" encoding="iso-8859-1"?>
<!-- Uploaded to: SVG Repo, www.svgrepo.com, Generator: SVG Repo Mixer Tools -->
<!DOCTYPE svg PUBLIC "-//W3C//DTD SVG 1.1//EN" "http://www.w3.org/Graphics/SVG/1.1/DTD/svg11.dtd">
<svg fill="#000000" height="800px" width="800px" version="1.1" id="Capa_1" xmlns="http://www.w3.org/2000/svg" xmlns:xlink="http://www.w3.org/1999/xlink" 
	 viewBox="0 0 228.207 228.207" xml:space="preserve">
<g>
	<path d="M17.494,146.699v17.465c0,17.267,17.318,31.314,38.606,31.314h116.022c21.279,0,38.591-14.048,38.591-31.314v-17.465
		c10.128-3.195,17.493-12.683,17.493-23.86c0-11.306-7.55-20.877-17.87-23.951c-1.999-17.38-12.043-33.396-28.798-45.642
		c-18.104-13.231-42.053-20.518-67.433-20.518c-25.382,0-49.331,7.287-67.438,20.518c-16.756,12.244-26.8,28.262-28.798,45.642
		C7.55,101.962,0,111.533,0,122.839C0,134.017,7.365,143.504,17.494,146.699z M195.714,164.164c0,8.844-10.804,16.314-23.591,16.314
		H56.101c-12.796,0-23.607-7.471-23.607-16.314v-16.313h163.22V164.164z M114.106,47.729c41.396,0,75.668,21.881,80.894,50.119
		H33.208C38.434,69.609,72.708,47.729,114.106,47.729z M24.994,112.848h178.22c5.51,0,9.993,4.482,9.993,9.991
		c0,5.521-4.483,10.013-9.993,10.013H24.994c-5.511,0-9.994-4.491-9.994-10.013C15,117.33,19.483,112.848,24.994,112.848z"/>
	<path d="M134.34,61.172c-4.077,0-7.395,3.311-7.395,7.381c0,4.042,3.317,7.331,7.395,7.331c4.071,0,7.383-3.289,7.383-7.331
		C141.723,64.483,138.411,61.172,134.34,61.172z"/>
	<path d="M93.881,61.172c-4.069,0-7.381,3.311-7.381,7.381c0,4.042,3.312,7.331,7.381,7.331c4.069,0,7.381-3.289,7.381-7.331
		C101.262,64.483,97.95,61.172,93.881,61.172z"/>
	<path d="M154.565,72.188c-4.064,0-7.37,3.312-7.37,7.383c0,4.044,3.306,7.334,7.37,7.334c4.069,0,7.383-3.29,7.383-7.334
		C161.948,75.499,158.635,72.188,154.565,72.188z"/>
	<path d="M114.101,72.188c-4.063,0-7.367,3.312-7.367,7.383c0,4.044,3.304,7.334,7.367,7.334c4.064,0,7.372-3.29,7.372-7.334
		C121.473,75.499,118.165,72.188,114.101,72.188z"/>
	<path d="M73.643,72.188c-4.063,0-7.367,3.312-7.367,7.383c0,4.044,3.305,7.334,7.367,7.334c4.071,0,7.383-3.29,7.383-7.334
		C81.025,75.499,77.714,72.188,73.643,72.188z"/>
</g>
</svg>